<?xml version="1.0" encoding="utf-8"?>
<!-- Generator: Adobe Illustrator 24.1.2, SVG Export Plug-In . SVG Version: 6.00 Build 0)  -->
<svg version="1.1" id="Capa_1" xmlns="http://www.w3.org/2000/svg" xmlns:xlink="http://www.w3.org/1999/xlink" x="0px" y="0px"
	 viewBox="0 0 112.2 112.2" style="enable-background:new 0 0 112.2 112.2;" xml:space="preserve">
<style type="text/css">
	.st0{fill:#4B5563;}
	.st1{fill:none;}
</style>
<g>
	<path class="st0" d="M56.1,0C25.1,0,0,25.1,0,56.1c0,31,25.1,56.1,56.1,56.1c31,0,56.1-25.1,56.1-56.1C112.2,25.1,87.1,0,56.1,0z
		 M83.8,47.3c0,0.6,0,1.2,0,1.7c0,17.7-13.5,38.1-38.2,38.1c-7.6,0-14.6-2.2-20.6-6c1.1,0.1,2.1,0.2,3.2,0.2
		c6.3,0,12.1-2.1,16.7-5.7c-5.9-0.1-10.8-4-12.5-9.3c0.8,0.2,1.7,0.2,2.5,0.2c1.2,0,2.4-0.2,3.5-0.5c-6.1-1.2-10.8-6.7-10.8-13.2
		v-0.2c1.8,1,3.9,1.6,6.1,1.7c-3.6-2.4-6-6.5-6-11.2c0-2.5,0.7-4.8,1.8-6.7c6.6,8.1,16.5,13.4,27.6,14c-0.2-1-0.3-2-0.3-3.1
		C56.9,40,63,34,70.3,34c3.9,0,7.3,1.6,9.8,4.2c3-0.6,5.9-1.7,8.5-3.3c-1,3.1-3.1,5.8-5.9,7.4c2.7-0.3,5.3-1,7.7-2.1
		C88.7,43,86.4,45.4,83.8,47.3z"/>
	<g>
		<path class="st1" d="M83.8,47.3c0,0.6,0,1.2,0,1.7c0,17.7-13.5,38.1-38.2,38.1c-7.6,0-14.6-2.2-20.6-6c1.1,0.1,2.1,0.2,3.2,0.2
			c6.3,0,12.1-2.1,16.7-5.7c-5.9-0.1-10.8-4-12.5-9.3c0.8,0.2,1.7,0.2,2.5,0.2c1.2,0,2.4-0.2,3.5-0.5c-6.1-1.2-10.8-6.7-10.8-13.2
			v-0.2c1.8,1,3.9,1.6,6.1,1.7c-3.6-2.4-6-6.5-6-11.2c0-2.5,0.7-4.8,1.8-6.7c6.6,8.1,16.5,13.4,27.6,14c-0.2-1-0.3-2-0.3-3.1
			C56.9,40,63,34,70.3,34c3.9,0,7.3,1.6,9.8,4.2c3-0.6,5.9-1.7,8.5-3.3c-1,3.1-3.1,5.8-5.9,7.4c2.7-0.3,5.3-1,7.7-2.1
			C88.7,43,86.4,45.4,83.8,47.3z"/>
	</g>
</g>
</svg>
